<?xml version="1.0" standalone="no"?>
<!DOCTYPE svg PUBLIC "-//W3C//DTD SVG 20010904//EN"
 "http://www.w3.org/TR/2001/REC-SVG-20010904/DTD/svg10.dtd">
<svg version="1.0" xmlns="http://www.w3.org/2000/svg"
 width="512.000000pt" height="512.000000pt" viewBox="0 0 512.000000 512.000000"
 preserveAspectRatio="xMidYMid meet">

<g transform="translate(0.000000,512.000000) scale(0.100000,-0.100000)"
fill="#000000" stroke="none">
<path d="M2195 5089 c-38 -12 -57 -26 -81 -64 -18 -28 -19 -59 -24 -697 l-5
-668 -48 34 c-73 52 -201 112 -300 140 -294 85 -631 39 -982 -134 -393 -193
-635 -488 -727 -885 -26 -115 -36 -381 -19 -522 50 -402 227 -844 507 -1262
126 -190 242 -330 408 -496 222 -222 411 -356 613 -435 134 -53 221 -70 355
-70 120 0 196 15 291 57 l57 26 58 -26 c150 -68 327 -79 504 -33 105 27 263
98 366 165 38 25 68 38 76 34 6 -5 68 -47 137 -94 153 -106 177 -119 229 -119
49 0 74 12 210 103 495 331 917 717 1108 1011 121 187 181 368 189 573 9 222
-37 387 -160 568 -101 148 -310 303 -458 340 -23 6 -26 13 -37 90 -71 490
-421 881 -952 1064 -179 62 -300 84 -465 84 -240 -1 -425 -55 -602 -179 l-63
-43 0 134 c0 97 3 135 12 135 6 0 50 -7 97 -16 121 -23 374 -15 486 15 285 76
498 270 655 596 133 276 142 420 30 469 -135 59 -440 84 -615 51 -206 -39
-343 -110 -480 -249 -50 -50 -111 -122 -135 -159 l-45 -68 -5 230 -5 230 -29
30 c-17 17 -46 36 -65 41 -41 11 -46 11 -86 -1z m1211 -342 c11 -11 -102 -229
-154 -297 -93 -122 -198 -199 -329 -240 -76 -24 -245 -37 -336 -26 l-56 7 27
62 c35 83 112 211 160 269 105 125 220 193 383 228 47 10 295 7 305 -3z
m-1785 -1188 c159 -40 309 -133 417 -257 100 -115 127 -140 165 -150 76 -21
108 -1 239 150 112 129 260 220 423 259 122 29 305 23 444 -15 432 -119 733
-387 836 -742 35 -122 36 -120 -32 -128 -161 -19 -319 -77 -439 -161 l-66 -45
-29 25 c-86 71 -235 137 -379 167 -123 26 -327 21 -437 -11 -264 -76 -488
-275 -593 -528 -88 -210 -92 -438 -15 -683 45 -142 124 -277 261 -446 88 -108
331 -348 464 -458 52 -44 96 -82 98 -86 4 -11 -189 -97 -259 -114 -82 -20
-181 -21 -245 -1 -27 8 -83 36 -124 61 -96 58 -134 57 -230 -5 -88 -57 -152
-74 -259 -69 -148 8 -318 81 -501 216 -94 70 -354 329 -444 442 -165 210 -321
467 -426 703 -234 529 -264 975 -89 1305 140 263 431 472 784 560 104 27 120
29 246 31 78 1 127 -4 190 -20z m1544 -1184 c105 -27 196 -79 288 -165 97 -89
125 -101 197 -87 24 5 51 23 80 53 129 133 268 198 445 210 226 16 436 -93
560 -290 93 -147 117 -316 71 -496 -33 -127 -87 -234 -185 -364 -115 -153
-362 -390 -613 -589 -107 -85 -387 -287 -397 -287 -11 1 -318 223 -429 312
-336 267 -615 569 -711 771 -46 97 -81 239 -81 329 0 135 67 308 158 409 82
91 196 162 313 193 72 20 230 20 304 1z"/>
</g>
</svg>
