<?xml version="1.0" standalone="no"?>
<!DOCTYPE svg PUBLIC "-//W3C//DTD SVG 1.1//EN" "http://www.w3.org/Graphics/SVG/1.1/DTD/svg11.dtd" >
<svg xmlns="http://www.w3.org/2000/svg">
<metadata>Generated by IcoMoon</metadata>
<defs>
<font id="icomoon" horiz-adv-x="1024">
<font-face units-per-em="1024" ascent="960" descent="-64" />
<missing-glyph horiz-adv-x="1024" />
<glyph unicode="&#x20;" horiz-adv-x="512" d="" />
<glyph unicode="&#xe900;" glyph-name="aggregate" d="M171.842 556.858c-90.504 0-164.136 73.63-164.136 164.134s73.632 164.136 164.136 164.136c90.482 0 164.092-73.632 164.092-164.136s-73.612-164.134-164.092-164.134zM171.842 815.128c-51.908 0-94.136-42.23-94.136-94.136s42.23-94.134 94.136-94.134c51.882 0 94.092 42.228 94.092 94.134s-42.21 94.136-94.092 94.136zM308.704 101.12c-12.72 0-25.494 1.5-37.96 4.458-42.618 10.058-78.798 36.158-101.84 73.48-23.034 37.312-30.162 81.346-20.068 123.986 17.586 74.376 83.218 126.324 159.602 126.324 12.706 0 25.46-1.494 37.912-4.442 42.652-10.090 78.826-36.196 101.854-73.508 23.030-37.316 30.142-81.36 20.026-124.016-17.59-74.344-83.192-126.282-159.526-126.282zM308.438 359.368c-43.778 0-81.396-29.79-91.482-72.442-5.788-24.45-1.698-49.698 11.514-71.098 13.21-21.4 33.95-36.364 58.396-42.132 7.218-1.712 14.554-2.576 21.84-2.576 43.734 0 81.322 29.78 91.41 72.418 5.804 24.47 1.724 49.72-11.48 71.118s-33.948 36.368-58.406 42.152c-7.182 1.7-14.51 2.56-21.792 2.56zM581.982 420.144c-90.482 0-164.094 73.612-164.094 164.092 0 90.504 73.612 164.136 164.094 164.136 90.506 0 164.136-73.63 164.136-164.136 0.002-90.482-73.63-164.092-164.136-164.092zM581.982 678.372c-51.884 0-94.094-42.23-94.094-94.136 0-51.884 42.21-94.094 94.094-94.094 51.906 0 94.136 42.21 94.136 94.094 0.002 51.906-42.228 94.136-94.136 94.136zM855.452 10c-90.482 0-164.094 73.612-164.094 164.094s73.612 164.094 164.094 164.094c90.506 0 164.136-73.612 164.136-164.094s-73.63-164.094-164.136-164.094zM855.452 268.188c-51.882 0-94.094-42.21-94.094-94.094s42.21-94.094 94.094-94.094c51.906 0 94.136 42.21 94.136 94.094s-42.23 94.094-94.136 94.094z" />
<glyph unicode="&#xe901;" glyph-name="arrow_down" d="M510.096 456.4l-271.912 271.908-126.372-126.372 398.284-398.286 398.288 398.284-126.376 126.376-271.912-271.91z" />
<glyph unicode="&#xe902;" glyph-name="arrow_up" d="M782.006 203.652l126.376 126.376-398.286 398.282-398.284-398.284 126.372-126.372 271.912 271.91 271.91-271.912z" />
<glyph unicode="&#xe903;" glyph-name="categorical" d="M6.142 891h432.94v-432.94h-432.94v432.94zM1019.908 269.966c0-135.666-110.004-245.672-245.668-245.672s-245.666 110.006-245.666 245.672c0 135.664 110.002 245.666 245.666 245.666s245.668-110.002 245.668-245.666z" />
<glyph unicode="&#xe904;" glyph-name="color" d="M734.12 635.218l-244.844 246.866-35.172 36.518-83.598-81.804c-142.592 20.226-245.072-32.138-281.364-96.86-44.046-78.316 0.898-163.608 2.138-166.3 37.754-75.508 92.026-120.678 161.018-134.5 15.506-3.036 30.45-4.832 46.072-4.832 71.462 0 143.376 31.010 198.442 62.138 14.49-10.56 32.356-16.408 51.68-16.408 50.342 0 91.578 41.356 91.578 92.252 0 50.788-41.236 92.024-91.578 92.024-50.454 0-91.576-41.234-91.576-92.024 0-5.058 0.788-10.342 1.010-14.716-54.608-31.912-127.194-61.128-191.468-47.982-46.972 9.55-83.264 40.898-111.578 97.084-0.226 0.564-28.204 54.5-3.486 98.1 20.676 36.626 74.386 60.338 156.862 69.212l-12.698-12.918-118.436-118.436c1.464-2.808 2.136-4.726 2.136-4.726 11.574-22.468 24.27-41.234 38.544-55.948l213.606 214.276c10.338 10.112 23.71 15.734 38.094 15.734 14.27 0 27.976-5.622 37.866-15.734l259.452-260.234c21.016-20.908 21.016-55.064 0-76.186l-337.094-338.334c-20.112-20.224-55.62-20.224-75.956 0l-259.24 260.464c-10.11 10.118-15.732 23.712-15.732 38.094 0 14.156 5.622 27.976 15.732 37.872l27.982 27.974c-15.958 16.624-30.12 36.292-43.042 59.104l-35.726-36.298c-23.604-23.598-36.746-55.17-36.746-88.658 0-33.594 13.142-65.28 36.748-88.768l259.78-260.244c23.488-23.702 54.836-36.85 88.096-36.85 33.824 0 64.72 13.148 88.542 36.85l337.094 338.452 71.018 70.226-19.888 20.006c37.416 19.776 54.046-149.454 54.046-149.454s51.69-404.288 97.76 0c44.056 386.882-259.558 293.842-286.074 284.968v0z" />
<glyph unicode="&#xe905;" glyph-name="cross" d="M154.498 805.504c-197.998-197.998-197.996-519.010 0-717.006s519.008-197.996 717.004 0c197.992 197.992 197.998 519.010 0 717.006-197.992 197.994-519.012 197.994-717.004 0zM752.002 606.334l-159.334-159.334 159.334-159.334-79.668-79.666-159.332 159.332-159.336-159.336-79.668 79.668 159.336 159.336-159.336 159.336 79.668 79.666 159.336-159.336 159.332 159.334 79.668-79.666z" />
<glyph unicode="&#xe906;" glyph-name="download" d="M783.564 489.602l-269.064-269.068-269.068 269.068h168.168v403.598h201.798v-403.598h168.166zM514.5 171.468h-504.5v-200h1009v200h-504.5z" />
<glyph unicode="&#xe907;" glyph-name="enlarge" d="M1017 951h-410.312l157.812-157.812-189.376-189.376 94.688-94.688 189.376 189.376 157.812-157.812v410.312zM1017-59v410.312l-157.812-157.81-189.376 189.374-94.688-94.688 189.376-189.376-157.812-157.812h410.312zM7-59h410.31l-157.81 157.81 189.374 189.376-94.688 94.688-189.374-189.374-157.812 157.812v-410.312zM7 951v-410.312l157.81 157.812 189.376-189.376 94.688 94.688-189.374 189.376 157.812 157.812h-410.312z" />
<glyph unicode="&#xe908;" glyph-name="erase" d="M502.382 17.492c7.232 0 11.714 0 16.080 0 110.314 0 221.010 0 332.45-0.62 7.726 0 17.954-2.87 23.934-8.606 11.718-10.594 5.614-29.912-9.844-34.156-4.112-1.366-9.228-1.984-13.962-1.984-195.328 0-391.28 0-586.612-0.134-11.964 0-20.57 4.116-27.794 11.714-68.938 69.682-137.866 139.242-206.426 208.298-30.54 31.036-30.54 71.304 0 102.088 196.334 198.444 393.152 397.518 589.856 596.090 30.54 31.034 70.798 30.538 101.47 0 90.868-91.746 181.24-183.24 271.86-274.484 30.412-31.036 30.042-71.432-1.366-102.588-160.308-161.798-319.988-323.47-479.662-485.276-2.754-2.236-5.496-5.598-9.984-10.342zM342.826 545.648c-2.368-2.368-4.734-4.484-7.108-6.852-89.75-90.75-180.122-181.872-269.994-272.488-17.332-17.95-17.332-28.42 0.496-46.372 64.326-65.070 128.52-130.012 192.468-195.208 5.982-5.612 11.466-7.228 19.32-7.228 50.112 0 99.724 0.246 149.832 0.246 7.348 0 12.71 2.124 17.95 7.854 69.932 70.56 140.234 142.108 210.532 212.288 2.75 2.868 4.868 5.36 7.356 8.478-106.948 99.718-213.776 198.94-320.852 299.282z" />
<glyph unicode="&#xe909;" glyph-name="fitTiSelection" d="M617.676 412.666l76.728-76.695-84.84-84.876-76.728 76.695 84.84 84.876zM770.96 449.484l-274.834-274.94 274.822 0.076zM388.777 634.609l76.707-76.663-84.828-84.876-76.707 76.663 84.828 84.876zM227.396 436.26l274.808 274.966-274.822-0.1zM235.208 841.336h112.542v112.54h-112.542v-112.54zM235.208-59h112.542v112.542h-112.542v-112.542zM460.29-59h112.542v112.542h-112.542v-112.542zM10.126-59h112.542v112.542h-112.542v-112.542zM10.126 166.082h112.542v112.542h-112.542v-112.542zM10.126 391.168h112.542v112.54h-112.542v-112.54zM10.126 616.25h112.542v112.54h-112.542v-112.54zM10.126 841.336h112.542v112.54h-112.542v-112.54zM910.458 166.082h112.542v112.542h-112.542v-112.542zM910.458 391.168h112.542v112.54h-112.542v-112.54zM910.458-59h112.542v112.542h-112.542v-112.542zM910.458 616.25h112.542v112.54h-112.542v-112.54zM910.458 953.876v-112.54h112.542v112.54h-112.542zM460.29 841.336h112.542v112.54h-112.542v-112.54zM685.376-59h112.54v112.542h-112.54v-112.542zM685.376 841.336h112.54v112.54h-112.54v-112.54z" />
<glyph unicode="&#xe90a;" glyph-name="fitToScreen" d="M617.676 412.666l76.728-76.695-84.84-84.876-76.728 76.695 84.84 84.876zM770.96 449.484l-274.834-274.94 274.822 0.076zM388.777 634.609l76.707-76.663-84.828-84.876-76.707 76.663 84.828 84.876zM227.396 436.26l274.808 274.966-274.822-0.1zM115 721h-114v240h242v-114h-128zM241-69h-240v240h112v-128h128zM1029 721h-114v126h-130v114h244zM1029-69h-240v112h128v128h112z" />
<glyph unicode="&#xe90b;" glyph-name="flower" d="M564.28 468.96c0 180.666 253.542 327.18 0 327.18-253.636 0 0-146.514 0-327.18zM557.746 472.534c115.708-173.182 20.888-439.646 209.47-313.394 188.584 126.006-93.762 140.218-209.47 313.394zM566.806 464.282c243.67 77.216 511.282-82.126 440.834 139.888-70.348 221.822-197.164-62.672-440.834-139.888zM564.28 468.96c-301.282 98.82-468.926 411.882-545.332 178.898-76.404-232.796 244.050-80.078 545.332-178.898zM564.28 468.96c-177.328-246.77-526.968-298.568-321.076-446.604 205.844-148.234 143.75 199.832 321.076 446.604z" />
<glyph unicode="&#xe90c;" glyph-name="help" d="M425.604 275.614v46.724c0 42.694 6.56 79.976 19.686 111.716 13.050 31.782 37.084 65.978 71.712 102.42 32.806 36.012 53.842 64.242 63.092 84.72 8.928 20.436 13.598 46.408 13.598 77.994 0 28.938-6.562 52.454-20.002 70.722-13.364 18.262-34.47 27.394-63.402 27.394-47.996 0-98.436-17.158-151.33-51.394l-62.776 133.42c69.734 47.638 147.062 71.39 232.21 71.39 73.37 0 131.242-20.396 173.7-61.074 42.376-40.642 63.728-97.288 63.728-169.748 0-50.72-7.28-93.732-21.986-129.106-14.626-35.35-45.222-77.916-91.476-127.692-29.724-32.452-48.778-57.478-57-75.064-8.22-17.596-12.334-41.43-12.334-71.71v-40.712h-157.42zM394.29 52.894c0 35.104 9.25 62.066 28.31 80.958 18.814 18.974 46.408 28.382 82.38 28.382 36.448 0 64.128-9.642 82.782-29.014 18.664-19.292 27.99-46.090 27.99-80.326 0-33.76-9.652-60.488-28.624-80.094-19.286-19.528-46.562-29.332-82.148-29.332-35.654 0-63.088 9.648-82.062 28.7-19.216 19.052-28.628 46.018-28.628 80.726z" />
<glyph unicode="&#xe90d;" glyph-name="lens" d="M472.104 22.892c-122.17 0-237.312 47.352-324.21 133.328-86.966 86.044-135.53 200.8-136.744 323.128-1.202 123.15 45.62 239.394 131.836 327.326s201.498 137.022 324.61 138.226c1.556 0.016 3.146 0.024 4.708 0.024 122.162 0 237.288-47.354 324.162-133.342 86.94-86.048 135.476-200.806 136.668-323.132 1.222-123.122-45.586-239.358-131.8-327.292-86.212-87.934-201.508-137.030-324.636-138.246-1.526-0.016-3.078-0.020-4.594-0.020zM472.306 864.924c-1.294 0-2.616-0.006-3.916-0.020-210.066-2.054-379.29-174.66-377.244-384.768 2.064-208.010 172.96-377.244 380.958-377.244 1.258 0 2.546 0.008 3.808 0.020 101.76 1.008 197.042 41.586 268.296 114.258 71.254 72.674 109.94 168.738 108.93 270.496-2.026 208.022-172.866 377.258-380.832 377.258zM1017.424 42.842l-82.728-88.792-207.072 192.988 82.73 88.796z" />
<glyph unicode="&#xe90e;" glyph-name="magiclens" d="M472.104 22.892c-122.17 0-237.312 47.352-324.21 133.328-86.966 86.044-135.53 200.8-136.744 323.128-1.202 123.15 45.62 239.394 131.836 327.326s201.498 137.022 324.61 138.226c1.556 0.016 3.146 0.024 4.708 0.024 122.162 0 237.288-47.354 324.162-133.342 86.94-86.048 135.476-200.806 136.668-323.132 1.222-123.122-45.586-239.358-131.8-327.292-86.212-87.934-201.508-137.030-324.636-138.246-1.526-0.016-3.078-0.020-4.594-0.020zM472.306 864.924c-1.294 0-2.616-0.006-3.916-0.020-210.066-2.054-379.29-174.66-377.244-384.768 2.064-208.010 172.96-377.244 380.958-377.244 1.258 0 2.546 0.008 3.808 0.020 101.76 1.008 197.042 41.586 268.296 114.258 71.254 72.674 109.94 168.738 108.93 270.496-2.026 208.022-172.866 377.258-380.832 377.258zM490.254 488.9c-0.942 90.176 124.878 164.482-1.632 163.226-126.584-1.254 0.69-73.050 1.632-163.226zM486.908 490.728c58.574-85.836 12.546-219.21 106.052-155.422 93.458 63.914-47.476 69.586-106.052 155.422zM491.45 486.636c121.164 39.8 255.558-38.354 219.276 71.908-36.144 110.458-98.112-32.106-219.276-71.908zM490.254 488.9c-150.826 47.854-236.084 203.272-272.988 86.652-37.034-116.498 122.158-38.794 272.988-86.652zM490.254 488.9c-87.28-123.87-261.532-151.518-157.938-224.444 103.338-72.792 70.658 100.576 157.938 224.444zM1017.424 42.842l-82.728-88.792-207.072 192.988 82.73 88.796z" />
<glyph unicode="&#xe90f;" glyph-name="matrix" d="M619.8 765.538c0-62.098-50.368-112.568-112.512-112.568-62.104 0-112.514 50.468-112.514 112.568 0 62.148 50.412 112.566 112.514 112.566 62.144 0 112.512-50.418 112.512-112.566zM235.872 765.538c0-62.098-50.466-112.568-112.614-112.568-62.052 0-112.52 50.468-112.52 112.568 0 62.148 50.468 112.566 112.52 112.566 62.152 0 112.614-50.418 112.614-112.566zM1016.97 765.538c0-62.098-50.364-112.568-112.512-112.568-62.102 0-112.564 50.468-112.564 112.568 0 62.148 50.466 112.566 112.564 112.566 62.15 0 112.512-50.418 112.512-112.566zM619.8 447.786c0-62.148-50.368-112.512-112.512-112.512-62.104 0-112.514 50.368-112.514 112.512 0 62.152 50.412 112.52 112.514 112.52 62.144 0 112.512-50.366 112.512-112.52zM235.872 447.786c0-62.148-50.466-112.512-112.614-112.512-62.052 0-112.52 50.368-112.52 112.512 0 62.152 50.468 112.52 112.52 112.52 62.152 0 112.614-50.366 112.614-112.52zM1016.97 447.786c0-62.148-50.364-112.512-112.512-112.512-62.102 0-112.564 50.368-112.564 112.512 0 62.152 50.466 112.52 112.564 112.52 62.15 0 112.512-50.366 112.512-112.52zM619.8 129.988c0-62.048-50.368-112.418-112.512-112.418-62.104 0-112.514 50.37-112.514 112.418 0 62.2 50.412 112.616 112.514 112.616 62.144 0 112.512-50.414 112.512-112.616zM235.872 129.988c0-62.048-50.466-112.418-112.614-112.418-62.052 0-112.52 50.37-112.52 112.418 0 62.2 50.468 112.616 112.52 112.616 62.152 0 112.614-50.414 112.614-112.616zM1016.97 129.988c0-62.048-50.364-112.418-112.512-112.418-62.102 0-112.564 50.37-112.564 112.418 0 62.2 50.466 112.616 112.564 112.616 62.15 0 112.512-50.414 112.512-112.616z" />
<glyph unicode="&#xe910;" glyph-name="menu" d="M7 838.072h1011.908v-216.836h-1011.908v216.836zM7 548.954h1011.908v-216.84h-1011.908v216.84zM7 259.838h1011.908v-216.838h-1011.908v216.838z" />
<glyph unicode="&#xe911;" glyph-name="minus" d="M112 523.998v-151.998c0-13.992 11.194-25.33 24.998-25.33h750.002c13.806 0 25 11.338 25 25.33v151.998c0 13.988-11.194 25.332-25 25.332h-750.002c-13.802 0-24.998-11.342-24.998-25.332z" />
<glyph unicode="&#xe912;" glyph-name="ordinal" d="M12 357.294h233.782v-258.918h-233.782v258.918zM268.406 490.526h233.78v-392.15h-233.78v392.15zM524.812 663.978h233.786v-565.602h-233.786v565.602zM781.22 799.724h233.782v-701.348h-233.782v701.348z" />
<glyph unicode="&#xe913;" glyph-name="plus" d="M887 548h-275v275c0 13.806-11.196 25.002-25.002 25.002h-150c-13.806 0-25-11.196-25-25.002v-275h-274.998c-13.804 0-25-11.198-25-25.002v-150c0-13.804 11.194-25 25-25h274.998v-275c0-13.806 11.194-25 25-25h150c13.806 0 25 11.194 25 25v275.002h275.002c13.804 0 25 11.194 25 25v150c0 13.806-11.194 25-25 25z" />
<glyph unicode="&#xe914;" glyph-name="preventOverlapping" d="M863.679 180.646l76.728-76.695-84.84-84.876-76.728 76.695 84.84 84.876zM1016.96 217.484l-274.834-274.94 274.822 0.076zM172.778 868.606l76.707-76.663-84.828-84.876-76.707 76.663 84.828 84.876zM11.396 670.26l274.808 274.966-274.822-0.1zM827.298 329.53c-7.864-105.896-100.162-185.432-206.176-177.562-105.958 7.882-185.434 100.178-177.566 206.066 7.878 106.020 100.118 185.552 206.078 177.682 106.010-7.874 185.542-100.178 177.664-206.186zM585.694 540.472c-7.876-105.962-100.178-185.55-206.194-177.672-105.956 7.874-185.424 100.226-177.552 206.18 7.876 106.014 100.114 185.552 206.074 177.682 106.016-7.88 185.546-100.182 177.672-206.19z" />
<glyph unicode="&#xe915;" glyph-name="select" d="M106.944 948.384c239.792-105.406 474.98-208.778 716.364-314.966-29.308-11.754-53.516-21.87-78.054-31.132-45.164-17.338-90.872-33.592-135.93-51.612-44.968-17.972-52.546-50.106-21.644-87.628 109.11-132.682 218.16-265.682 328.324-397.452 16.204-19.332 14.406-28.48-5.602-42.010-30.042-20.186-58.882-42.494-86.118-66.258-16.472-14.238-24.418-10.882-37.054 4.666-108.708 133.022-218.126 265.42-327.546 397.82-36.376 43.874-65.040 42.812-97.728-3.128-37.186-52.354-74.070-104.882-111.090-157.458-5.862-4.558-6.53-6.558-15.53-14.558-4 8-5.576 13.912-6.79 20.612-26.408 158.814-52.134 317.684-78.062 476.578-14.13 87.25-28.44 174.414-43.54 266.526z" />
<glyph unicode="&#xe916;" glyph-name="splitscreen" d="M13 951v-1006h1006v1006h-1006zM460.112 56.284h-335.332v782.94h335.334v-782.94h-0.002zM907.226 56.768h-335.336v782.456h335.336v-782.456z" />
<glyph unicode="&#xe917;" glyph-name="star" d="M11 643l550 154 456-188-250-442-522-132-234 608z" />
<glyph unicode="&#xe918;" glyph-name="upload" d="M512.894 175h-504.678v-200h1009.358v200h-504.68zM243.73 627.906l269.162 269.16 269.16-269.162h-168.224v-336.454h-201.87v336.456h-168.228z" />
<glyph unicode="&#xea41;" glyph-name="circle-up" d="M0 448c0-282.77 229.23-512 512-512s512 229.23 512 512-229.23 512-512 512-512-229.23-512-512zM928 448c0-229.75-186.25-416-416-416s-416 186.25-416 416 186.25 416 416 416 416-186.25 416-416zM706.744 290.744l90.512 90.512-285.256 285.254-285.254-285.256 90.508-90.508 194.746 194.744z" />
<glyph unicode="&#xea43;" glyph-name="circle-down" d="M1024 448c0 282.77-229.23 512-512 512s-512-229.23-512-512 229.23-512 512-512 512 229.23 512 512zM96 448c0 229.75 186.25 416 416 416s416-186.25 416-416-186.25-416-416-416-416 186.25-416 416zM317.256 605.256l-90.512-90.512 285.256-285.254 285.254 285.256-90.508 90.508-194.746-194.744z" />
</font>
</defs>
</svg>
