<svg width="32" height="32" viewBox="0 0 32 32" fill="none" xmlns="http://www.w3.org/2000/svg">
<circle cx="16" cy="16" r="16" fill="#29A6DD"/>
<path d="M17.0664 12.75V10.5664H14.9336V12.75H17.0664ZM17.0664 21.4336V14.9336H14.9336V21.4336H17.0664ZM8.33203 8.38281C10.4648 6.25 13.0208 5.18359 16 5.18359C18.9792 5.18359 21.5182 6.25 23.6172 8.38281C25.75 10.4818 26.8164 13.0208 26.8164 16C26.8164 18.9792 25.75 21.5352 23.6172 23.668C21.5182 25.7669 18.9792 26.8164 16 26.8164C13.0208 26.8164 10.4648 25.7669 8.33203 23.668C6.23307 21.5352 5.18359 18.9792 5.18359 16C5.18359 13.0208 6.23307 10.4818 8.33203 8.38281Z" fill="white"/>
</svg>
